#!OML:ASF H:\Terrain\Patient Classification 1\Walking\liu\liu.ASF
:FULLY-SPECIFIED
:DEGREES
113
root 7.83102 16.6127 -9.33978 5.96893 0.348411 -3.93745
lowerback -2.84192 1.328 -0.315013
upperback -0.813032 1.75406 3.17128
thorax 0.649517 0.880835 3.49369
lowerneck -21.0435 -5.30127 -13.2045
upperneck 21.037 -6.90268 14.6637
head 11.3346 -2.47824 6.5658
rclavicle 3.08116e-015 2.82274e-014
rhumerus -28.7135 18.6383 -87.5666
rradius 35.4556
rwrist -18.8381
rhand -31.4004 -26.4125
rfingers 7.12502
rthumb -4.66973 -56.341
lclavicle 3.08116e-015 2.82274e-014
lhumerus -41.792 -6.45713 91.2682
lradius 23.0806
lwrist 0.773913
lhand -17.33 -31.239
lfingers 7.12502
lthumb 8.91693 -1.44742
rfemur -11.412 5.00836 29.3938
rtibia 28.6461
rfoot -20.2807 3.2214
rtoes -14.3127
lfemur -37.2664 8.95087 -19.6544
ltibia 65.5996
lfoot -12.1198 13.2074
ltoes -0.328714
114
root 7.84429 16.6127 -9.13792 5.95296 -0.018026 -3.98873
lowerback -2.77797 1.42854 -0.288515
upperback -0.742985 1.88605 3.24926
thorax 0.675481 0.946171 3.56285
lowerneck -21.1897 -5.33456 -13.3009
upperneck 21.1873 -6.85669 14.4466
head 11.4045 -2.48499 6.51227
rclavicle -1.81143e-014 1.19271e-014
rhumerus -27.9025 20.1784 -87.4828
rradius 36.5838
rwrist -18.9562
rhand -31.8021 -28.8809
rfingers 7.12502
rthumb -5.05763 -58.8006
lclavicle -1.81143e-014 1.19271e-014
lhumerus -42.7073 -5.71732 90.8182
lradius 22.5771
lwrist -0.0529203
lhand -16.3367 -30.0503
lfingers 7.12502
lthumb 9.87532 -0.30188
rfemur -10.1374 5.09742 29.4999
rtibia 27.7675
rfoot -20.462 2.72429
rtoes -14.9783
lfemur -38.04 8.76999 -19.6708
ltibia 63.4932
lfoot -14.0895 12.7751
ltoes 1.92469
115
root 7.8588 16.6171 -8.92965 6.0188 -0.414413 -4.10515
lowerback -2.87809 1.53546 -0.197309
upperback -0.65414 2.02136 3.32721
thorax 0.8144 1.01193 3.60124
lowerneck -21.2786 -5.30014 -13.2601
upperneck 21.1382 -6.73097 14.1773
head 11.3679 -2.45258 6.41727
rclavicle 2.17172e-014 1.74931e-014
rhumerus -26.8548 21.3154 -87.3243
rradius 37.4622
rwrist -18.8201
rhand -31.6638 -29.2785
rfingers 7.12502
rthumb -4.92411 -59.2013
lclavicle 2.17172e-014 1.74931e-014
lhumerus -43.5452 -4.73052 90.0937
lradius 22.0226
lwrist -1.45643
lhand -10.1944 -23.468
lfingers 7.12502
lthumb 15.7965 5.90752
rfemur -8.93346 5.26492 29.6431
rtibia 26.8891
rfoot -20.4622 2.58692
rtoes -13.6806
lfemur -38.9551 8.87084 -19.7448
ltibia 61.1812
lfoot -14.9066 13.0123
ltoes -1.726
116
root 7.87218 16.6297 -8.72943 6.2615 -0.668692 -4.35388
lowerback -2.88895 1.65082 0.0718785
upperback -0.727356 2.16891 3.35355
thorax 0.744929 1.08732 3.48033
lowerneck -21.3858 -5.2631 -13.2277
upperneck 21.2201 -6.68592 14.1845
head 11.4109 -2.42472 6.42662
rclavicle 1.51076e-014 -2.66371e-014
rhumerus -26.1447 22.3854 -87.243
rradius 38.5049
rwrist -19.0143
rhand -30.8312 -27.4405
rfingers 7.12502
rthumb -4.12018 -57.3804
lclavicle 1.51076e-014 -2.66371e-014
lhumerus -44.6345 -4.00676 89.3185
lradius 21.6911
lwrist -2.87555
lhand -10.637 -25.3951
lfingers 7.12502
lthumb 15.3702 4.01362
rfemur -7.96933 5.07373 29.9112
rtibia 25.9834
rfoot -20.1079 2.89383
rtoes -12.6104
lfemur -40.139 8.88035 -19.6001
ltibia 58.5723
lfoot -14.8462 12.86
ltoes -9.50481
117
root 7.88487 16.617 -8.53184 6.3536 -0.975153 -4.54317
lowerback -2.83154 1.77443 0.320981
upperback -0.705589 2.3271 3.34594
thorax 0.735979 1.16651 3.33562
lowerneck -21.3582 -5.23743 -13.3513
upperneck 21.1491 -6.65953 14.3945
head 11.3888 -2.39985 6.53284
rclavicle 4.28132e-014 -2.38542e-015
rhumerus -25.4255 23.6964 -87.1132
rradius 39.6206
rwrist -19.5861
rhand -30.4823 -26.2746
rfingers 7.12502
rthumb -3.7832 -56.2207
lclavicle 4.28132e-014 -2.38542e-015
lhumerus -45.5194 -3.37594 88.5298
lradius 21.2689
lwrist -3.9046
lhand -9.9741 -24.9951
lfingers 7.12502
lthumb 16.0086 4.36342
rfemur -6.78125 4.60042 30.0917
rtibia 25.0194
rfoot -19.5632 3.26503
rtoes -14.6068
lfemur -40.7438 8.7346 -19.4042
ltibia 55.6765
lfoot -15.1028 12.4159
ltoes -10.3823
118
root 7.89657 16.6224 -8.3247 6.40949 -1.41433 -4.47968
lowerback -2.97058 1.88083 0.238437
upperback -0.533051 2.4635 3.30977
thorax 0.981463 1.23155 3.35855
lowerneck -21.3974 -5.15662 -13.291
upperneck 20.9142 -6.51466 14.3237
head 11.2789 -2.33593 6.50704
rclavicle -8.69683e-016 -1.66979e-014
rhumerus -24.324 24.8974 -86.8334
rradius 40.5292
rwrist -20.0626
rhand -30.6312 -24.4599
rfingers 7.12502
rthumb -3.92697 -54.4035
lclavicle -8.69683e-016 -1.66979e-014
lhumerus -46.0528 -2.47575 87.5929
lradius 20.6947
lwrist -4.55819
lhand -9.78961 -24.3439
lfingers 7.12502
lthumb 16.1862 5.00027
rfemur -5.51512 4.69415 29.9711
rtibia 24.0683
rfoot -19.1079 3.29665
rtoes -16.4166
lfemur -41.0072 8.53441 -19.4017
ltibia 52.5727
lfoot -15.5015 12.042
ltoes -7.4549
